<svg version="1.1" xmlns="http://www.w3.org/2000/svg" viewBox="0 0 85 85">
<style type="text/css">
	.st1{fill:#FFFFFF; transition-duration: 0.15s;}
	.st1:hover{fill:#EDEDED;}
</style>
<path class="st1" d="M42.5,0.7C19.4,0.7,0.7,19.4,0.7,42.5c0,23.1,18.7,41.8,41.8,41.8c23.1,0,41.8-18.7,41.8-41.8
	C84.4,19.4,65.6,0.7,42.5,0.7z M38.7,44.4c0.1,3.3-0.4,6.4-1.5,9.3c-1.1,2.9-2.6,5.5-4.5,7.8c-2,2.3-4.3,4.2-7,5.7
	c-2.2,1.2-4.5,2-7,2.5c-1,0.2-1.9-0.5-1.9-1.5V61c0-0.7,0.4-1.2,1-1.5c3.3-1.3,5.7-3.2,7-5.6c1.2-2.2,1.9-4.8,2.1-7.8
	c0.1-0.9-0.6-1.7-1.6-1.7h-7c-0.9,0-1.6-0.7-1.6-1.6V22.4c0-0.9,0.7-1.6,1.6-1.6h18.7c0.9,0,1.6,0.7,1.6,1.6V44.4z M71.5,44.4
	c0.1,3.3-0.4,6.4-1.5,9.3c-1.1,2.9-2.6,5.5-4.5,7.8c-2,2.3-4.3,4.2-7,5.7c-2.2,1.2-4.5,2-7,2.5c-1,0.2-1.9-0.5-1.9-1.5V61
	c0-0.7,0.4-1.2,1-1.5c3.3-1.3,5.7-3.2,7-5.6c1.2-2.2,1.9-4.8,2.1-7.8c0.1-0.9-0.6-1.7-1.6-1.7h-7c-0.9,0-1.6-0.7-1.6-1.6V22.4
	c0-0.9,0.7-1.6,1.6-1.6h18.7c0.9,0,1.6,0.7,1.6,1.6V44.4z"/>
</svg>